<svg width="101" height="50" viewBox="0 0 101 50" fill="none" xmlns="http://www.w3.org/2000/svg">
<path d="M43.6398 20.9705C43.6398 20.521 43.2862 20.1682 42.8356 20.1682C42.7065 20.1682 42.5789 20.2004 42.4497 20.2649C41.9992 20.521 37.1066 17.824 37.1389 16.9572V16.8928C37.1066 16.026 41.9992 13.3289 42.4497 13.5851C42.5789 13.6495 42.7065 13.6818 42.8356 13.6818C43.2862 13.6818 43.6398 13.3289 43.6398 12.8794C43.6398 12.4621 43.2862 12.1093 42.8356 12.1093C42.4174 12.1093 42.0638 12.4621 42.0638 12.8794C42.0315 13.3934 37.268 16.2515 36.5285 15.802C36.4962 15.802 36.4639 15.802 36.4639 15.7698C35.6921 15.3525 35.7873 9.79732 36.2378 9.53954C36.4639 9.37842 36.6238 9.12225 36.6238 8.86447C36.6238 8.41496 36.2701 8.06213 35.8196 8.06213C35.4014 8.06213 35.0478 8.41496 35.0478 8.83225C35.0478 9.3462 30.252 12.2366 29.5125 11.7871C29.4909 11.7656 29.4694 11.7441 29.4479 11.7226C28.676 11.3053 28.7713 5.75015 29.2218 5.49236C29.4479 5.36347 29.6077 5.1073 29.6077 4.8173C29.6077 4.36779 29.2541 4.01495 28.8359 4.01495C28.3854 4.01495 28.0318 4.36779 28.0318 4.78507C28.0318 5.33125 23.236 8.1894 22.4965 7.7399C22.4749 7.71842 22.4534 7.70768 22.4319 7.70768C21.6923 7.29039 21.7553 1.70297 22.2058 1.44519C22.4319 1.3163 22.5917 1.06013 22.5917 0.770123C22.5917 0.352839 22.2381 0 21.8199 0C21.3694 0 21.0158 0.352839 21.0158 0.770123C21.0158 1.05852 21.1772 1.3163 21.4017 1.44519C21.8522 1.70136 21.9491 7.29039 21.1756 7.70768C21.111 7.7399 21.0464 7.77212 20.9818 7.83657L21.0464 7.7399C20.3699 8.15718 16.2184 5.81298 15.5434 5.04286C15.5757 4.97841 15.5757 4.88174 15.5757 4.8173C15.5757 4.36779 15.2221 4.01495 14.8039 4.01495C14.3534 4.01495 14.032 4.36779 14.032 4.8173C14.032 5.10569 14.1612 5.36347 14.3857 5.49236C14.8362 5.74853 14.9331 11.3053 14.1919 11.7226C14.1596 11.7548 14.1273 11.7548 14.1273 11.7871C13.3878 12.2366 8.592 9.3462 8.592 8.83225C8.5597 8.41496 8.23837 8.06213 7.78786 8.06213C7.36964 8.06213 7.01602 8.41496 7.01602 8.86447C7.01602 9.12064 7.17749 9.37842 7.40194 9.53954C7.82015 9.79571 7.91704 15.3525 7.17587 15.7698C7.15434 15.7913 7.13281 15.802 7.11128 15.802C6.37174 16.2515 1.57598 13.3934 1.57598 12.8794C1.57598 12.4621 1.22235 12.1093 0.771842 12.1093C0.353627 12.1093 0 12.4621 0 12.8794C0 13.3289 0.353627 13.6818 0.771842 13.6818C0.933316 13.6818 1.06088 13.6495 1.15776 13.5851C1.60827 13.3289 6.50092 16.026 6.46862 16.8928V16.9572C6.50092 17.824 1.60827 20.521 1.15776 20.2649C1.06088 20.2004 0.931701 20.1682 0.771842 20.1682C0.353627 20.1682 0 20.521 0 20.9705C0 21.3878 0.353627 21.7407 0.771842 21.7407C0.933316 21.7407 1.06088 21.7084 1.15776 21.644C1.60827 21.3878 6.50092 24.1171 6.46862 24.9517V25.0483C6.50092 25.8829 1.60827 28.6122 1.15776 28.356C1.06088 28.2915 0.931701 28.2593 0.771842 28.2593C0.353627 28.2593 0 28.6122 0 29.0295C0 29.479 0.353627 29.8318 0.771842 29.8318C0.933316 29.8318 1.06088 29.7996 1.15776 29.7351C1.60827 29.479 6.50092 32.176 6.46862 33.0428V33.1072C6.50092 33.974 1.60827 36.6711 1.15776 36.4149C1.06088 36.3505 0.931701 36.3182 0.771842 36.3182C0.353627 36.3182 0 36.6711 0 37.1206C0 37.5379 0.353627 37.8907 0.771842 37.8907C1.22235 37.8907 1.57598 37.5379 1.57598 37.1206C1.57598 36.6066 6.37174 33.7485 7.11128 34.198C7.13281 34.198 7.15434 34.2087 7.17587 34.2302C7.91542 34.6475 7.82015 40.2027 7.40194 40.4605C7.17587 40.6216 7.01602 40.8777 7.01602 41.1355C7.01602 41.585 7.36964 41.9379 7.78786 41.9379C8.23837 41.9379 8.5597 41.585 8.592 41.1677C8.592 40.6538 13.3878 37.7634 14.1273 38.2129C14.1273 38.2451 14.1596 38.2451 14.1919 38.2774C14.9314 38.6947 14.8362 44.2499 14.3857 44.5076C14.1596 44.6365 14.032 44.8927 14.032 45.1827C14.032 45.6322 14.3534 45.985 14.8039 45.985C15.2221 45.985 15.5757 45.6322 15.5757 45.2149C15.608 44.6688 20.3715 41.8106 21.111 42.2601C21.1433 42.2923 21.1756 42.2923 21.1756 42.2923C21.9475 42.7096 21.8522 48.297 21.4017 48.5548C21.1756 48.6837 21.0158 48.9399 21.0158 49.2299C21.0158 49.6472 21.3694 50 21.8199 50C22.2381 50 22.5917 49.6472 22.5917 49.2299C22.5917 48.9415 22.4303 48.6837 22.2058 48.5548C21.7553 48.2986 21.6907 42.7096 22.4319 42.2923C22.4534 42.2923 22.4749 42.2816 22.4965 42.2601C23.236 41.8106 28.0318 44.6688 28.0318 45.2149C28.0318 45.6322 28.3854 45.985 28.8359 45.985C29.2541 45.985 29.6077 45.6322 29.6077 45.1827C29.6077 44.8943 29.4463 44.6365 29.2218 44.5076C28.7713 44.2515 28.6744 38.6947 29.4479 38.2774C29.4694 38.2559 29.4909 38.2344 29.5125 38.2129C30.252 37.7634 35.0478 40.6538 35.0478 41.1677C35.0478 41.585 35.4014 41.9379 35.8196 41.9379C36.2701 41.9379 36.6238 41.585 36.6238 41.1355C36.6238 40.8794 36.4623 40.6216 36.2378 40.4605C35.7873 40.2043 35.6904 34.6475 36.4639 34.2302C36.4639 34.198 36.4962 34.198 36.5285 34.198C37.268 33.7485 42.0315 36.6066 42.0638 37.1206C42.0638 37.5379 42.4174 37.8907 42.8356 37.8907C43.2862 37.8907 43.6398 37.5379 43.6398 37.1206C43.6398 36.6711 43.2862 36.3182 42.8356 36.3182C42.7065 36.3182 42.5789 36.3505 42.4497 36.4149C41.9992 36.6711 37.1066 33.974 37.1389 33.1072V33.0428C37.1066 32.176 41.9992 29.479 42.4497 29.7351C42.5789 29.7996 42.7065 29.8318 42.8356 29.8318C43.2862 29.8318 43.6398 29.479 43.6398 29.0295C43.6398 28.6122 43.2862 28.2593 42.8356 28.2593C42.7065 28.2593 42.5789 28.2915 42.4497 28.356C41.9992 28.6122 37.1066 25.8829 37.1389 25.0483V24.9517C37.1066 24.1171 41.9992 21.3878 42.4497 21.644C42.5789 21.7084 42.7065 21.7407 42.8356 21.7407C43.2862 21.7407 43.6398 21.3878 43.6398 20.9705ZM8.17378 9.53954C8.68888 9.31398 13.5169 12.0126 13.4846 12.8472V12.8794C13.4846 13.3612 13.7414 13.7784 14.1289 14.004C14.8362 14.4535 15.0622 18.3718 13.7753 19.0452C13.743 19.0452 13.6784 19.0775 13.6461 19.1097C12.4238 19.8798 9.141 17.7612 9.10871 16.8944C9.07642 16.4126 8.81967 15.9954 8.43214 15.7698C7.66029 15.3525 7.75556 9.86176 8.17539 9.53954H8.17378ZM1.57598 20.9722C1.64057 20.426 6.37174 17.6 7.11128 18.0496C7.30505 18.1784 7.5295 18.2429 7.78786 18.2429C8.01392 18.2429 8.23837 18.1784 8.43214 18.0818C9.17168 17.6645 12.6805 19.4303 12.6159 20.8755V21.0688C12.6805 22.4818 9.17168 24.2476 8.43214 23.8625C8.23837 23.7659 8.01392 23.7014 7.78786 23.7014C7.53112 23.7014 7.30505 23.7659 7.11128 23.8948C6.37174 24.3443 1.64057 21.5183 1.57598 20.9722ZM7.11128 31.9553C6.37174 32.4048 1.64057 29.5788 1.57598 29.0327C1.64057 28.4865 6.37174 25.6606 7.11128 26.1101C7.30505 26.239 7.5295 26.3034 7.78786 26.3034C8.01392 26.3034 8.23837 26.239 8.43214 26.1423C9.17168 25.7572 12.6805 27.523 12.6159 28.936V29.1293C12.6805 30.5745 9.17168 32.3403 8.43214 31.923C8.23837 31.8264 8.01392 31.7619 7.78786 31.7619C7.53112 31.7619 7.30505 31.8264 7.11128 31.9553ZM14.1273 36.0008C13.7414 36.2264 13.483 36.6437 13.483 37.1254V37.1576C13.5153 37.9922 8.68726 40.6892 8.17216 40.4653C7.75395 40.1447 7.65706 34.6523 8.42891 34.235C8.81483 34.0095 9.07319 33.5922 9.10548 33.1105C9.13778 32.2437 12.4205 30.1234 13.6429 30.8951C13.6752 30.9274 13.7398 30.9596 13.7721 30.9596C15.059 31.6347 14.8346 35.5513 14.1257 36.0008H14.1273ZM14.8039 26.8496C14.3857 26.8496 13.9674 26.9785 13.6445 27.2024C12.4221 27.9403 9.23466 25.8861 9.1071 25.0193C9.23627 24.1203 12.4221 22.0323 13.6445 22.804C13.9658 23.0296 14.384 23.1569 14.8039 23.1569C15.1575 23.1569 15.4804 23.0602 15.8018 22.9007C16.0278 22.804 16.3169 22.7396 16.5736 22.7074H16.6382C17.4746 22.7396 18.2804 23.3824 18.1835 24.7632V25.2449C18.3127 27.1074 16.7997 27.6213 15.8018 27.1074C15.4804 26.9463 15.1575 26.8512 14.8039 26.8512V26.8496ZM20.6298 18.7568C21.5631 19.3675 21.8845 20.9077 20.2116 21.7439C20.0501 21.8083 19.9226 21.905 19.7934 21.9695C18.2158 23.0296 17.058 21.9695 16.9935 20.8449C16.9289 20.0748 16.4784 19.3675 15.8034 19.0469C14.5487 18.3718 14.7409 14.584 15.4498 14.0378C16.2862 13.685 19.6981 15.4186 19.6335 16.8315V16.9282C19.6335 17.6983 20.0195 18.3734 20.6314 18.7585L20.6298 18.7568ZM20.6298 31.248C20.0178 31.633 19.6319 32.3081 19.6319 33.0782V33.1749C19.6965 34.5879 16.2846 36.3214 15.4482 35.9686C14.7409 35.4224 14.5471 31.633 15.8018 30.9596C16.4784 30.639 16.9289 29.9317 16.9918 29.1616C17.0564 28.037 18.2142 26.9785 19.7918 28.0048C19.921 28.1014 20.0485 28.1981 20.21 28.2609C21.8829 29.0955 21.5615 30.6374 20.6282 31.248H20.6298ZM21.1126 40.0464C20.759 40.272 20.5007 40.6892 20.5007 41.1387V41.2032C20.5329 42.0378 15.7049 44.7042 15.1898 44.5109C14.7716 44.158 14.6747 38.6979 15.4159 38.2806C15.8341 38.055 16.0924 37.6378 16.1231 37.156C16.1554 36.2892 19.4382 34.1367 20.6282 34.9085H20.5959C20.6605 34.9407 20.7574 34.9729 20.7897 35.0052C22.0766 35.6802 21.8522 39.5969 21.111 40.0464H21.1126ZM20.7913 14.9997C20.759 15.0319 20.6944 15.0641 20.6298 15.0963C19.4398 15.8665 16.157 13.7156 16.1247 12.8488C16.0924 12.3671 15.8357 11.9498 15.4175 11.7242C14.7102 11.3392 14.7409 6.29793 15.1607 5.55842C15.9003 5.5262 20.4393 7.99929 20.4393 8.83386L20.5039 8.67275V8.86608C20.5039 9.31559 20.7606 9.73287 21.1159 9.95843C21.8554 10.4079 22.0815 14.3262 20.7945 14.9997H20.7913ZM29.5125 14.004C29.8984 13.7784 30.1245 13.3612 30.1245 12.8794V12.8472C30.1245 12.0126 34.9202 9.31559 35.4353 9.53954C35.8858 9.86015 35.9504 15.3525 35.2093 15.7698C34.8233 15.9954 34.5327 16.4126 34.5327 16.8944C34.5004 17.7612 31.2176 19.8814 29.9953 19.1097C29.9307 19.0775 29.8984 19.0452 29.8338 19.0452C28.5469 18.3702 28.7713 14.4535 29.5125 14.004ZM22.4965 9.95843C22.8824 9.73287 23.1084 9.31559 23.1084 8.86608V8.80164C23.1084 7.96707 27.9042 5.30064 28.4193 5.49397C28.8698 5.84681 28.9667 11.307 28.1932 11.7242C27.8073 11.9498 27.5167 12.3671 27.5167 12.8488C27.4844 13.7156 24.2016 15.8681 22.9793 15.0963C22.947 15.0641 22.8824 15.0319 22.8178 14.9997C21.5631 14.3246 21.7553 10.4079 22.4965 9.95843ZM27.8073 19.0469C27.1307 19.3675 26.6802 20.0748 26.6479 20.8449C26.5834 21.9695 25.3933 23.028 23.848 21.9695C23.6865 21.905 23.559 21.8083 23.4298 21.7439C21.7246 20.9093 22.046 19.3675 23.0116 18.7568C23.5913 18.3718 24.0095 17.6967 24.0095 16.9266V16.8299C23.9449 15.417 27.3245 13.6834 28.1609 14.0362C28.8682 14.5824 29.062 18.3718 27.8073 19.0452V19.0469ZM28.1609 35.9702C27.3245 36.3231 23.9449 34.5895 24.0095 33.1765V33.0798C24.0095 32.3097 23.5913 31.6347 23.0116 31.2496C22.046 30.639 21.7246 29.0987 23.3975 28.2625C23.559 28.1981 23.6865 28.1014 23.848 28.037C25.4256 26.9769 26.5834 28.037 26.6479 29.1616C26.6802 29.9317 27.1307 30.639 27.8073 30.9596C29.062 31.6347 28.8698 35.4224 28.1609 35.9686V35.9702ZM28.4177 44.5125C27.9026 44.7058 23.1068 42.0394 23.1068 41.2048V41.1404C23.1068 40.6908 22.8808 40.2736 22.4948 40.048C21.7553 39.5985 21.5615 35.6802 22.8162 35.0068C22.8808 34.9745 22.9454 34.9423 22.9777 34.9101C24.2 34.14 27.4828 36.2908 27.5151 37.1576C27.5151 37.6394 27.8041 38.0566 28.1916 38.2822C28.9635 38.6995 28.8682 44.158 28.4177 44.5125ZM28.8359 26.8512C28.45 26.8512 28.1287 26.9479 27.838 27.1074C26.8078 27.6213 25.3271 27.1074 25.4563 25.2449V24.7632C25.3594 23.3824 26.1635 22.7396 27.0016 22.7074H27.0662C27.3229 22.7396 27.5813 22.804 27.838 22.9007C28.127 23.0618 28.45 23.1569 28.8359 23.1569C29.2541 23.1569 29.64 23.028 29.9953 22.804C31.1853 22.0661 34.4051 24.1203 34.5004 25.0193C34.4035 25.8861 31.1853 27.9419 29.9953 27.2024C29.6417 26.9769 29.2557 26.8496 28.8359 26.8496V26.8512ZM35.4337 40.4669C34.9186 40.6925 30.1228 37.9938 30.1228 37.1592V37.127C30.1228 36.6453 29.8968 36.228 29.5109 36.0024C28.7713 35.5529 28.5453 31.6347 29.8322 30.9612C29.8968 30.9612 29.9291 30.929 29.9937 30.8968C31.216 30.1266 34.4988 32.2453 34.5311 33.1121C34.5311 33.5938 34.8201 34.0111 35.2076 34.2366C35.9472 34.6539 35.8842 40.1447 35.4337 40.4669ZM42.0638 29.0343C41.9669 29.5805 37.2357 32.4064 36.5285 31.9569C36.3024 31.828 36.078 31.7635 35.8212 31.7635C35.5952 31.7635 35.403 31.828 35.2093 31.9247C34.4374 32.3419 30.9609 30.5761 30.9932 29.131V28.9376C30.9609 27.5246 34.4374 25.7588 35.2093 26.1439C35.403 26.2406 35.5952 26.305 35.8212 26.305C36.078 26.305 36.304 26.2406 36.5285 26.1117C37.2357 25.6622 41.9669 28.4881 42.0638 29.0343ZM36.5285 23.8964C36.3024 23.7675 36.078 23.703 35.8212 23.703C35.5952 23.703 35.403 23.7675 35.2093 23.8641C34.4374 24.2492 30.9609 22.4834 30.9932 21.0704V20.8771C30.9609 19.4319 34.4374 17.6661 35.2093 18.0834C35.403 18.1801 35.5952 18.2445 35.8212 18.2445C36.078 18.2445 36.304 18.1801 36.5285 18.0512C37.2357 17.6017 41.9669 20.4276 42.0638 20.9738C41.9669 21.5199 37.2357 24.3459 36.5285 23.8964Z" fill="#0F92CD"/>
<path d="M7.79529 19.4882C8.65634 19.4882 9.35435 18.0922 9.35435 16.3701C9.35435 14.648 8.65634 13.252 7.79529 13.252C6.93425 13.252 6.23624 14.648 6.23624 16.3701C6.23624 18.0922 6.93425 19.4882 7.79529 19.4882Z" fill="white"/>
<path d="M0.771842 20.1682C0.353627 20.1682 0 20.521 0 20.9705C0 21.3878 0.353627 21.7407 0.771842 21.7407C1.22235 21.7407 1.57598 21.3878 1.57598 20.9705C1.57598 20.521 1.22235 20.1682 0.771842 20.1682Z" fill="white"/>
<path d="M0.771842 12.1077C0.353627 12.1077 0 12.4605 0 12.8778C0 13.3273 0.353627 13.6802 0.771842 13.6802C1.22235 13.6802 1.57598 13.3273 1.57598 12.8778C1.57598 12.4605 1.22235 12.1077 0.771842 12.1077Z" fill="white"/>
<path d="M7.7793 10.1339C8.22497 10.1339 8.5748 9.43421 8.5748 8.60676C8.5748 7.71542 8.22497 7.01576 7.7793 7.01576C7.36558 7.01576 7.01575 7.71542 7.01575 8.60676C7.01575 9.43421 7.36558 10.1339 7.7793 10.1339Z" fill="white"/>
<path d="M23.8558 16.3081C23.8558 14.1898 22.8781 12.474 21.672 12.4759C20.4659 12.4778 19.4882 14.1966 19.4882 16.315C19.4882 18.4334 20.4659 20.1492 21.672 20.1473C22.8781 20.1454 23.8558 18.4265 23.8558 16.3081Z" fill="white"/>
<path d="M42.8357 20.1682C42.4174 20.1682 42.0638 20.521 42.0638 20.9705C42.0638 21.3878 42.4174 21.7407 42.8357 21.7407C43.2862 21.7407 43.6398 21.3878 43.6398 20.9705C43.6398 20.521 43.2862 20.1682 42.8357 20.1682Z" fill="white"/>
<path d="M14.811 14.811C15.6469 14.811 16.3701 13.4239 16.3701 11.6543C16.3701 9.88465 15.6469 8.57481 14.811 8.57481C13.9752 8.57481 13.252 9.96193 13.252 11.6543C13.252 13.3467 13.9371 14.811 14.811 14.811Z" fill="white"/>
<path d="M21.8461 11.6929C22.6923 11.6929 23.3858 10.3058 23.3858 8.61345C23.3858 6.92109 22.6923 5.4567 21.8461 5.4567C20.9999 5.4567 20.2677 6.84382 20.2677 8.61345C20.2677 10.3831 20.9613 11.6929 21.8461 11.6929Z" fill="white"/>
<path d="M28.8585 7.01576C29.2722 7.01576 29.6221 6.3161 29.6221 5.48865C29.6221 4.5973 29.2722 3.89764 28.8585 3.89764C28.4128 3.89764 28.063 4.5973 28.063 5.48865C28.063 6.3161 28.4128 7.01576 28.8585 7.01576Z" fill="white"/>
<path d="M28.8619 15.5906C29.7081 15.5906 30.4016 14.0301 30.4016 12.0392C30.4016 10.0484 29.7081 8.57481 28.8619 8.57481C28.0157 8.57481 27.2835 10.1353 27.2835 12.0392C27.2835 13.9431 27.9771 15.5906 28.8619 15.5906Z" fill="white"/>
<path d="M35.8424 10.9134C36.288 10.9134 36.6379 10.0388 36.6379 9.00452C36.6379 7.89033 36.288 7.01576 35.8424 7.01576C35.4286 7.01576 35.0788 7.89033 35.0788 9.00452C35.0788 10.0388 35.4286 10.9134 35.8424 10.9134Z" fill="white"/>
<path d="M42.8357 13.6818C43.2862 13.6818 43.6398 13.3289 43.6398 12.8794C43.6398 12.4621 43.2862 12.1093 42.8357 12.1093C42.4174 12.1093 42.0638 12.4621 42.0638 12.8794C42.0638 13.3289 42.4174 13.6818 42.8357 13.6818Z" fill="white"/>
<path d="M14.8111 7.01576C15.2334 7.01576 15.5906 6.3161 15.5906 5.48865C15.5906 4.5973 15.2334 3.89764 14.8111 3.89764C14.3561 3.89764 14.0315 4.5973 14.0315 5.48865C14.0315 6.3161 14.3561 7.01576 14.8111 7.01576Z" fill="white"/>
<path d="M21.8428 3.11811C22.2565 3.11811 22.6063 2.41846 22.6063 1.52711C22.6063 0.699659 22.2565 0 21.8428 0C21.3971 0 21.0473 0.699659 21.0473 1.52711C21.0473 2.41846 21.3971 3.11811 21.8428 3.11811Z" fill="white"/>
<path d="M35.839 13.252C34.9928 13.252 34.2993 14.8793 34.2993 16.7599C34.2993 18.6405 34.9928 20.2677 35.839 20.2677C36.6852 20.2677 37.4174 18.7263 37.4174 16.7599C37.4174 14.7934 36.7238 13.252 35.839 13.252Z" fill="white"/>
<path d="M35.839 29.6221C34.9928 29.6221 34.2993 31.1635 34.2993 33.13C34.2993 35.0964 34.9928 36.6378 35.839 36.6378C36.6852 36.6378 37.4174 35.0106 37.4174 33.13C37.4174 31.2494 36.7238 29.6221 35.839 29.6221Z" fill="white"/>
<path d="M42.8357 36.3198C42.4174 36.3198 42.0638 36.6727 42.0638 37.1222C42.0638 37.5395 42.4174 37.8923 42.8357 37.8923C43.2862 37.8923 43.6398 37.5395 43.6398 37.1222C43.6398 36.6727 43.2862 36.3198 42.8357 36.3198Z" fill="white"/>
<path d="M28.8599 17.1496C27.5437 17.1496 26.504 19.0418 26.504 21.437C26.504 23.8323 27.5437 25.7244 28.8599 25.7244C30.1762 25.7244 31.1811 23.769 31.1811 21.437C31.1811 19.1051 30.1414 17.1496 28.8599 17.1496Z" fill="white"/>
<path d="M35.839 21.8268C34.9928 21.8268 34.2993 23.3873 34.2993 25.3781C34.2993 27.369 34.9928 28.8426 35.839 28.8426C36.6852 28.8426 37.4174 27.2821 37.4174 25.3781C37.4174 23.4742 36.7238 21.8268 35.839 21.8268Z" fill="white"/>
<path d="M42.8357 28.2593C42.4174 28.2593 42.0638 28.6122 42.0638 29.0294C42.0638 29.479 42.4174 29.8318 42.8357 29.8318C43.2862 29.8318 43.6398 29.479 43.6398 29.0294C43.6398 28.6122 43.2862 28.2593 42.8357 28.2593Z" fill="white"/>
<path d="M35.8424 38.1969C35.4286 38.1969 35.0788 39.0715 35.0788 40.1058C35.0788 41.22 35.4286 42.0945 35.8424 42.0945C36.288 42.0945 36.6379 41.22 36.6379 40.1058C36.6379 39.0715 36.288 38.1969 35.8424 38.1969Z" fill="white"/>
<path d="M7.7793 38.1969C7.36558 38.1969 7.01575 39.0715 7.01575 40.1058C7.01575 41.22 7.36558 42.0945 7.7793 42.0945C8.22497 42.0945 8.5748 41.22 8.5748 40.1058C8.5748 39.0715 8.22497 38.1969 7.7793 38.1969Z" fill="white"/>
<path d="M28.8585 42.8741C28.4128 42.8741 28.063 43.5737 28.063 44.4012C28.063 45.2925 28.4128 45.9922 28.8585 45.9922C29.2722 45.9922 29.6221 45.2925 29.6221 44.4012C29.6221 43.5737 29.2722 42.8741 28.8585 42.8741Z" fill="white"/>
<path d="M0.771842 36.3198C0.353627 36.3198 0 36.6727 0 37.1222C0 37.5395 0.353627 37.8923 0.771842 37.8923C1.22235 37.8923 1.57598 37.5395 1.57598 37.1222C1.57598 36.6727 1.22235 36.3198 0.771842 36.3198Z" fill="white"/>
<path d="M7.79529 36.6378C8.65634 36.6378 9.35435 35.0673 9.35435 33.13C9.35435 31.1926 8.65634 29.6221 7.79529 29.6221C6.93425 29.6221 6.23624 31.1926 6.23624 33.13C6.23624 35.0673 6.93425 36.6378 7.79529 36.6378Z" fill="white"/>
<path d="M14.8531 33.5198C16.0611 33.5198 17.0372 31.5346 17.0334 29.0858C17.0295 26.6371 16.0471 24.6519 14.8391 24.6519C13.6312 24.6519 12.655 26.6371 12.6589 29.0858C12.6627 31.5346 13.6451 33.5198 14.8531 33.5198Z" fill="white"/>
<path d="M14.811 35.0788C13.9371 35.0788 13.252 36.2925 13.252 37.8409C13.252 39.3894 13.9371 40.5355 14.811 40.5355C15.685 40.5355 16.3701 39.3218 16.3701 37.8409C16.3701 36.3601 15.6469 35.0788 14.811 35.0788Z" fill="white"/>
<path d="M21.9617 38.4367C23.169 38.395 24.0833 36.5794 24.0039 34.3814C23.9245 32.1834 22.8814 30.4354 21.6742 30.4771C20.4669 30.5188 19.5526 32.3345 19.632 34.5324C19.7114 36.7304 20.7545 38.4784 21.9617 38.4367Z" fill="white"/>
<path d="M14.8111 42.0945C14.3561 42.0945 14.0315 42.9691 14.0315 44.0034C14.0315 45.1176 14.3561 45.9922 14.8111 45.9922C15.2334 45.9922 15.5906 45.1176 15.5906 44.0034C15.5906 42.9691 15.2334 42.0945 14.8111 42.0945Z" fill="white"/>
<path d="M28.8619 35.8583C27.9771 35.8583 27.2835 37.072 27.2835 38.6205C27.2835 40.1689 27.9771 41.315 28.8619 41.315C29.7467 41.315 30.4016 40.1013 30.4016 38.6205C30.4016 37.1397 29.7081 35.8583 28.8619 35.8583Z" fill="white"/>
<path d="M0.771842 28.2593C0.353627 28.2593 0 28.6122 0 29.0294C0 29.479 0.353627 29.8318 0.771842 29.8318C1.22235 29.8318 1.57598 29.479 1.57598 29.0294C1.57598 28.6122 1.22235 28.2593 0.771842 28.2593Z" fill="white"/>
<path d="M7.79529 21.0473C6.95947 21.0473 6.23624 22.6078 6.23624 24.5986C6.23624 26.5895 6.95947 28.063 7.79529 28.063C8.63112 28.063 9.35435 26.5025 9.35435 24.5986C9.35435 22.6947 8.66928 21.0473 7.79529 21.0473Z" fill="white"/>
<path d="M14.889 23.9854C16.0969 23.9731 17.055 22.168 17.029 19.9536C17.0031 17.7392 16.0028 15.954 14.7949 15.9663C13.5869 15.9786 12.6288 17.7836 12.6548 19.9981C12.6808 22.2125 13.681 23.9976 14.889 23.9854Z" fill="white"/>
<path d="M21.9047 20.6575C20.3831 20.6575 19.1764 22.7583 19.1764 25.314C19.1764 27.8697 20.3843 30.0119 21.9047 30.0119C23.4252 30.0119 24.6331 27.9111 24.6331 25.314C24.6331 22.717 23.401 20.6575 21.9047 20.6575Z" fill="white"/>
<path d="M28.8599 26.504C27.5437 26.504 26.504 28.2816 26.504 30.4016C26.504 32.5216 27.5437 34.2993 28.8599 34.2993C30.1762 34.2993 31.1811 32.5791 31.1811 30.4016C31.1811 28.2241 30.1414 26.504 28.8599 26.504Z" fill="white"/>
<path d="M21.8461 39.756C20.9613 39.756 20.2677 40.7963 20.2677 42.0656C20.2677 43.3348 20.9613 44.4331 21.8461 44.4331C22.7309 44.4331 23.3858 43.3928 23.3858 42.0656C23.3858 40.7383 22.6923 39.756 21.8461 39.756Z" fill="white"/>
<path d="M21.8428 45.9922C21.3971 45.9922 21.0473 46.8668 21.0473 47.9809C21.0473 49.0153 21.3971 49.8898 21.8428 49.8898C22.2565 49.8898 22.6063 49.0153 22.6063 47.9809C22.6063 46.8668 22.2565 45.9922 21.8428 45.9922Z" fill="white"/>
<path d="M91.2714 28.7004C91.0978 28.306 90.9085 27.8643 90.7035 27.3753C90.5142 26.8863 90.3091 26.3263 90.0883 25.6953C89.8832 25.0644 89.6624 24.3466 89.4258 23.5422C89.2049 22.7219 88.9683 21.7833 88.7159 20.7264C88.9368 20.5056 89.2286 20.3163 89.5914 20.1586C89.97 19.985 90.3801 19.8983 90.8218 19.8983C91.3739 19.8983 91.8313 20.0166 92.1941 20.2532C92.557 20.474 92.8251 20.9 92.9986 21.5309L94.8679 28.0378H94.9625C95.1518 27.5015 95.3332 26.9179 95.5068 26.2869C95.696 25.6559 95.8775 25.0092 96.051 24.3466C96.2245 23.6683 96.3822 22.9979 96.5242 22.3354C96.6819 21.6571 96.816 20.9946 96.9264 20.3478C97.4943 20.0481 98.1174 19.8983 98.7957 19.8983C99.3478 19.8983 99.8053 20.0166 100.168 20.2532C100.531 20.4898 100.712 20.9 100.712 21.4836C100.712 21.9095 100.657 22.4064 100.547 22.9743C100.436 23.5264 100.286 24.1179 100.097 24.7489C99.9236 25.3799 99.7106 26.0345 99.4582 26.7128C99.2216 27.3753 98.9692 28.0299 98.7011 28.6767C98.4329 29.3234 98.1568 29.9386 97.8729 30.5223C97.589 31.0902 97.3129 31.6028 97.0448 32.0603C96.6031 32.8332 96.1929 33.4642 95.8144 33.9532C95.4358 34.4422 95.073 34.8208 94.7259 35.089C94.3789 35.3729 94.0319 35.5622 93.6848 35.6568C93.3378 35.7673 92.975 35.8225 92.5964 35.8225C91.9339 35.8225 91.3975 35.6253 90.9874 35.2309C90.5773 34.8366 90.3328 34.3239 90.2539 33.6929C90.7587 33.2986 91.2635 32.8569 91.7682 32.3679C92.273 31.8947 92.7305 31.4057 93.1406 30.9009C92.8724 30.822 92.5806 30.6406 92.2651 30.3567C91.9654 30.0569 91.6342 29.5048 91.2714 28.7004Z" fill="white"/>
<path d="M75.3488 25.8846C75.3488 24.8435 75.5065 23.9444 75.822 23.1872C76.1375 22.4143 76.5713 21.7754 77.1234 21.2707C77.6912 20.7659 78.3459 20.3952 79.0873 20.1586C79.8444 19.9062 80.6568 19.78 81.5244 19.78C81.8399 19.78 82.1475 19.8115 82.4472 19.8746C82.7469 19.9219 82.9914 19.985 83.1807 20.0639V16.2308C83.3385 16.1834 83.5908 16.1361 83.9379 16.0888C84.2849 16.0257 84.6398 15.9941 85.0026 15.9941C85.3497 15.9941 85.6573 16.0178 85.9254 16.0651C86.2094 16.1124 86.446 16.2071 86.6353 16.3491C86.8246 16.491 86.9665 16.6882 87.0612 16.9406C87.1558 17.1772 87.2032 17.4927 87.2032 17.8871V29.1026C87.2032 29.844 86.8561 30.4355 86.1621 30.8772C85.7046 31.1769 85.1131 31.4372 84.3874 31.658C83.6618 31.8947 82.8258 32.013 81.8793 32.013C80.854 32.013 79.9312 31.871 79.1109 31.5871C78.3064 31.3031 77.6203 30.893 77.0524 30.3567C76.5003 29.8203 76.0744 29.1815 75.7747 28.4401C75.4907 27.6829 75.3488 26.8311 75.3488 25.8846ZM82.0686 22.927C81.2168 22.927 80.5622 23.1715 80.1047 23.6605C79.6473 24.1495 79.4185 24.8909 79.4185 25.8846C79.4185 26.8627 79.6315 27.604 80.0574 28.1088C80.4833 28.5978 81.0985 28.8423 81.903 28.8423C82.1869 28.8423 82.4393 28.8029 82.6602 28.724C82.8968 28.6294 83.0782 28.5268 83.2044 28.4164V23.2109C82.8889 23.0216 82.5103 22.927 82.0686 22.927Z" fill="white"/>
<path d="M69.5751 24.3466C69.5751 23.8576 69.4331 23.5027 69.1492 23.2819C68.881 23.0452 68.5103 22.9269 68.0371 22.9269C67.7216 22.9269 67.4061 22.9664 67.0906 23.0452C66.7909 23.1241 66.5306 23.2424 66.3098 23.4002V31.6107C66.1521 31.658 65.8997 31.7054 65.5526 31.7527C65.2214 31.8 64.8743 31.8237 64.5115 31.8237C64.1645 31.8237 63.849 31.8 63.5651 31.7527C63.2969 31.7054 63.0682 31.6107 62.8789 31.4687C62.6896 31.3268 62.5397 31.1375 62.4293 30.9009C62.3347 30.6485 62.2874 30.3251 62.2874 29.9307V22.8323C62.2874 22.4064 62.3741 22.0594 62.5476 21.7912C62.7369 21.523 62.9893 21.2785 63.3048 21.0577C63.8411 20.6791 64.5115 20.3715 65.316 20.1349C66.1363 19.8983 67.0433 19.78 68.0371 19.78C69.8196 19.78 71.192 20.1743 72.1542 20.963C73.1164 21.736 73.5975 22.8165 73.5975 24.2047V31.6107C73.4398 31.658 73.1874 31.7054 72.8404 31.7527C72.5091 31.8 72.1621 31.8237 71.7993 31.8237C71.4522 31.8237 71.1368 31.8 70.8528 31.7527C70.5847 31.7054 70.3559 31.6107 70.1666 31.4687C69.9773 31.3268 69.8275 31.1375 69.7171 30.9009C69.6224 30.6485 69.5751 30.3251 69.5751 29.9307V24.3466Z" fill="white"/>
<path d="M55.7514 16.9406C55.7514 16.3412 55.9486 14.2773 56.3429 13.8672C56.7531 13.4571 57.2894 13.252 57.9519 13.252C58.6144 13.252 59.1429 13.4571 59.5372 13.8672C59.9474 14.2773 60.1524 16.3412 60.1524 16.9406C60.1524 17.54 59.9474 18.0448 59.5372 18.4549C59.1429 18.865 58.6144 19.0701 57.9519 19.0701C57.2894 19.0701 56.7531 18.865 56.3429 18.4549C55.9486 18.0448 55.7514 17.54 55.7514 16.9406ZM59.9632 31.6107C59.7896 31.6423 59.5294 31.6817 59.1823 31.729C58.8511 31.7921 58.5119 31.8237 58.1649 31.8237C57.8178 31.8237 57.5024 31.8 57.2184 31.7527C56.9503 31.7053 56.7215 31.6107 56.5322 31.4687C56.3429 31.3268 56.1931 31.1375 56.0827 30.9009C55.988 30.6485 55.9407 30.3251 55.9407 29.9307V20.3005C56.1142 20.269 56.3666 20.2295 56.6979 20.1822C57.0449 20.1191 57.3919 20.0876 57.739 20.0876C58.086 20.0876 58.3936 20.1112 58.6618 20.1585C58.9457 20.2059 59.1823 20.3005 59.3716 20.4425C59.5609 20.5844 59.7029 20.7816 59.7975 21.034C59.9079 21.2706 59.9632 21.5861 59.9632 21.9805V31.6107Z" fill="white"/>
<path d="M50.2604 31.1611C50.0395 31.3504 49.6925 31.5161 49.2193 31.658C48.7618 31.8 48.257 31.871 47.7049 31.871C47.0424 31.871 46.4745 31.7763 46.0013 31.5871C45.5281 31.382 45.2047 31.1059 45.0312 30.7589C44.8577 30.3961 44.6447 29.9308 44.3923 29.3629C44.1399 28.7792 43.8718 28.1325 43.5878 27.4226C43.3197 26.7128 43.0357 25.9635 42.736 25.1748C42.4521 24.3703 42.176 23.5579 41.9079 22.7377C41.6397 21.9174 41.3873 21.1129 41.1507 20.3242C40.9141 19.5355 40.709 18.7941 40.5355 18.1C40.7563 17.8792 41.0718 17.682 41.482 17.5085C41.9079 17.3192 42.3574 17.2245 42.8307 17.2245C43.4143 17.2245 43.8875 17.3507 44.2503 17.6031C44.6289 17.8397 44.905 18.2893 45.0785 18.9518C45.5044 20.4977 45.9303 21.9805 46.3562 23.4002C46.7979 24.8041 47.2554 26.2711 47.7286 27.8012H47.8706C48.2965 26.3184 48.7303 24.7016 49.1719 22.9506C49.6294 21.1997 50.0632 19.4566 50.4733 17.7214C50.7573 17.5795 51.057 17.4611 51.3725 17.3665C51.7037 17.2719 52.0744 17.2245 52.4845 17.2245C53.0682 17.2245 53.5651 17.3586 53.9752 17.6268C54.3854 17.8792 54.5904 18.3051 54.5904 18.9045C54.5904 19.2515 54.5037 19.7563 54.3301 20.4188C54.1724 21.0814 53.9594 21.8306 53.6913 22.6667C53.4389 23.4869 53.1471 24.3466 52.8158 25.2458C52.5003 26.1449 52.1769 26.9967 51.8457 27.8012C51.5302 28.5899 51.2305 29.2919 50.9465 29.9071C50.6626 30.5065 50.4339 30.9245 50.2604 31.1611Z" fill="white"/>
</svg>
