<svg width="87" height="43" viewBox="0 0 87 43" fill="none" xmlns="http://www.w3.org/2000/svg">
<path d="M37.5302 18.0347C37.5302 17.6481 37.2261 17.3447 36.8386 17.3447C36.7276 17.3447 36.6179 17.3724 36.5068 17.4278C36.1193 17.6481 31.9116 15.3286 31.9394 14.5832V14.5278C31.9116 13.7823 36.1193 11.4629 36.5068 11.6832C36.6179 11.7386 36.7276 11.7663 36.8386 11.7663C37.2261 11.7663 37.5302 11.4629 37.5302 11.0763C37.5302 10.7174 37.2261 10.414 36.8386 10.414C36.479 10.414 36.1749 10.7174 36.1749 11.0763C36.1471 11.5183 32.0505 13.9763 31.4145 13.5897C31.3867 13.5897 31.359 13.5897 31.359 13.562C30.6952 13.2032 30.7771 8.42569 31.1645 8.204C31.359 8.06544 31.4964 7.84514 31.4964 7.62345C31.4964 7.23687 31.1923 6.93343 30.8049 6.93343C30.4452 6.93343 30.1411 7.23687 30.1411 7.59573C30.1411 8.03773 26.0167 10.5235 25.3807 10.1369C25.3622 10.1184 25.3437 10.0999 25.3252 10.0815C24.6614 9.72259 24.7433 4.94513 25.1308 4.72343C25.3252 4.61259 25.4627 4.39228 25.4627 4.14288C25.4627 3.7563 25.1585 3.45286 24.7989 3.45286C24.4114 3.45286 24.1073 3.7563 24.1073 4.11516C24.1073 4.58487 19.983 7.04289 19.347 6.65631C19.3284 6.63784 19.3099 6.6286 19.2914 6.6286C18.6554 6.26974 18.7096 1.46456 19.097 1.24286C19.2914 1.13202 19.4289 0.911709 19.4289 0.662306C19.4289 0.303441 19.1248 0 18.7651 0C18.3777 0 18.0735 0.303441 18.0735 0.662306C18.0735 0.910324 18.2124 1.13202 18.4054 1.24286C18.7929 1.46317 18.8762 6.26974 18.211 6.6286C18.1555 6.65631 18.0999 6.68402 18.0444 6.73945L18.0999 6.65631C17.5181 7.01518 13.9478 4.99916 13.3673 4.33686C13.3951 4.28143 13.3951 4.1983 13.3951 4.14288C13.3951 3.7563 13.091 3.45286 12.7313 3.45286C12.3439 3.45286 12.0675 3.7563 12.0675 4.14288C12.0675 4.39089 12.1786 4.61259 12.3717 4.72343C12.7591 4.94374 12.8424 9.72259 12.205 10.0815C12.1773 10.1092 12.1495 10.1092 12.1495 10.1369C11.5135 10.5235 7.38912 8.03773 7.38912 7.59573C7.36134 7.23687 7.085 6.93343 6.69756 6.93343C6.33789 6.93343 6.03377 7.23687 6.03377 7.62345C6.03377 7.84375 6.17264 8.06544 6.36567 8.204C6.72533 8.42431 6.80865 13.2032 6.17125 13.562C6.15274 13.5805 6.13422 13.5897 6.1157 13.5897C5.47969 13.9763 1.35534 11.5183 1.35534 11.0763C1.35534 10.7174 1.05122 10.414 0.663784 10.414C0.304119 10.414 0 10.7174 0 11.0763C0 11.4629 0.304119 11.7663 0.663784 11.7663C0.802652 11.7663 0.912356 11.7386 0.995677 11.6832C1.38312 11.4629 5.59079 13.7823 5.56301 14.5278V14.5832C5.59079 15.3286 1.38312 17.6481 0.995677 17.4278C0.912356 17.3724 0.801263 17.3447 0.663784 17.3447C0.304119 17.3447 0 17.6481 0 18.0347C0 18.3935 0.304119 18.697 0.663784 18.697C0.802652 18.697 0.912356 18.6693 0.995677 18.6138C1.38312 18.3935 5.59079 20.7407 5.56301 21.4584V21.5416C5.59079 22.2593 1.38312 24.6065 0.995677 24.3862C0.912356 24.3307 0.801263 24.303 0.663784 24.303C0.304119 24.303 0 24.6065 0 24.9653C0 25.3519 0.304119 25.6553 0.663784 25.6553C0.802652 25.6553 0.912356 25.6276 0.995677 25.5722C1.38312 25.3519 5.59079 27.6714 5.56301 28.4168V28.4722C5.59079 29.2177 1.38312 31.5371 0.995677 31.3168C0.912356 31.2614 0.801263 31.2337 0.663784 31.2337C0.304119 31.2337 0 31.5371 0 31.9237C0 32.2826 0.304119 32.586 0.663784 32.586C1.05122 32.586 1.35534 32.2826 1.35534 31.9237C1.35534 31.4817 5.47969 29.0237 6.1157 29.4103C6.13422 29.4103 6.15274 29.4195 6.17125 29.438C6.80726 29.7968 6.72533 34.5743 6.36567 34.796C6.17125 34.9346 6.03377 35.1549 6.03377 35.3766C6.03377 35.7631 6.33789 36.0666 6.69756 36.0666C7.085 36.0666 7.36134 35.7631 7.38912 35.4043C7.38912 34.9623 11.5135 32.4765 12.1495 32.8631C12.1495 32.8908 12.1773 32.8908 12.205 32.9185C12.841 33.2774 12.7591 38.0549 12.3717 38.2766C12.1773 38.3874 12.0675 38.6077 12.0675 38.8571C12.0675 39.2437 12.3439 39.5471 12.7313 39.5471C13.091 39.5471 13.3951 39.2437 13.3951 38.8848C13.4229 38.4151 17.5195 35.9571 18.1555 36.3437C18.1833 36.3714 18.211 36.3714 18.211 36.3714C18.8748 36.7303 18.7929 41.5354 18.4054 41.7571C18.211 41.868 18.0735 42.0883 18.0735 42.3377C18.0735 42.6966 18.3777 43 18.7651 43C19.1248 43 19.4289 42.6966 19.4289 42.3377C19.4289 42.0897 19.29 41.868 19.097 41.7571C18.7096 41.5368 18.654 36.7303 19.2914 36.3714C19.3099 36.3714 19.3284 36.3622 19.347 36.3437C19.983 35.9571 24.1073 38.4151 24.1073 38.8848C24.1073 39.2437 24.4114 39.5471 24.7989 39.5471C25.1585 39.5471 25.4627 39.2437 25.4627 38.8571C25.4627 38.6091 25.3238 38.3874 25.1308 38.2766C24.7433 38.0563 24.66 33.2774 25.3252 32.9185C25.3437 32.9001 25.3622 32.8816 25.3807 32.8631C26.0167 32.4765 30.1411 34.9623 30.1411 35.4043C30.1411 35.7631 30.4452 36.0666 30.8049 36.0666C31.1923 36.0666 31.4964 35.7631 31.4964 35.3766C31.4964 35.1562 31.3576 34.9346 31.1645 34.796C30.7771 34.5757 30.6938 29.7968 31.359 29.438C31.359 29.4103 31.3867 29.4103 31.4145 29.4103C32.0505 29.0237 36.1471 31.4817 36.1749 31.9237C36.1749 32.2826 36.479 32.586 36.8386 32.586C37.2261 32.586 37.5302 32.2826 37.5302 31.9237C37.5302 31.5371 37.2261 31.2337 36.8386 31.2337C36.7276 31.2337 36.6179 31.2614 36.5068 31.3168C36.1193 31.5371 31.9116 29.2177 31.9394 28.4722V28.4168C31.9116 27.6714 36.1193 25.3519 36.5068 25.5722C36.6179 25.6276 36.7276 25.6553 36.8386 25.6553C37.2261 25.6553 37.5302 25.3519 37.5302 24.9653C37.5302 24.6065 37.2261 24.303 36.8386 24.303C36.7276 24.303 36.6179 24.3307 36.5068 24.3862C36.1193 24.6065 31.9116 22.2593 31.9394 21.5416V21.4584C31.9116 20.7407 36.1193 18.3935 36.5068 18.6138C36.6179 18.6693 36.7276 18.697 36.8386 18.697C37.2261 18.697 37.5302 18.3935 37.5302 18.0347ZM7.02945 8.204C7.47244 8.01002 11.6246 10.3309 11.5968 11.0486V11.0763C11.5968 11.4906 11.8176 11.8495 12.1509 12.0434C12.7591 12.43 12.9535 15.7997 11.8467 16.3789C11.819 16.3789 11.7634 16.4066 11.7357 16.4343C10.6844 17.0966 7.86126 15.2746 7.83349 14.5292C7.80572 14.1149 7.58492 13.756 7.25164 13.562C6.58785 13.2032 6.66978 8.48112 7.03084 8.204H7.02945ZM1.35534 18.0361C1.41089 17.5663 5.47969 15.136 6.1157 15.5226C6.28234 15.6335 6.47537 15.6889 6.69756 15.6889C6.89197 15.6889 7.085 15.6335 7.25164 15.5503C7.88765 15.1915 10.9052 16.7101 10.8497 17.9529V18.1192C10.9052 19.3343 7.88765 20.8529 7.25164 20.5218C7.085 20.4386 6.89197 20.3832 6.69756 20.3832C6.47676 20.3832 6.28234 20.4386 6.1157 20.5495C5.47969 20.9361 1.41089 18.5058 1.35534 18.0361ZM6.1157 27.4815C5.47969 27.8681 1.41089 25.4378 1.35534 24.9681C1.41089 24.4984 5.47969 22.0681 6.1157 22.4547C6.28234 22.5655 6.47537 22.6209 6.69756 22.6209C6.89197 22.6209 7.085 22.5655 7.25164 22.4824C7.88765 22.1512 10.9052 23.6698 10.8497 24.885V25.0512C10.9052 26.2941 7.88765 27.8127 7.25164 27.4538C7.085 27.3707 6.89197 27.3153 6.69756 27.3153C6.47676 27.3153 6.28234 27.3707 6.1157 27.4815ZM12.1495 30.9607C11.8176 31.1547 11.5954 31.5136 11.5954 31.9279V31.9556C11.6232 32.6733 7.47105 34.9927 7.02806 34.8002C6.6684 34.5244 6.58507 29.801 7.24886 29.4421C7.58075 29.2481 7.80294 28.8893 7.83071 28.475C7.85849 27.7296 10.6817 25.9061 11.7329 26.5698C11.7607 26.5975 11.8162 26.6252 11.844 26.6252C12.9507 27.2058 12.7577 30.5741 12.1481 30.9607H12.1495ZM12.7313 23.0906C12.3717 23.0906 12.012 23.2015 11.7343 23.3941C10.683 24.0287 7.94181 22.2621 7.8321 21.5166C7.9432 20.7435 10.683 18.9478 11.7343 19.6115C12.0106 19.8054 12.3703 19.9149 12.7313 19.9149C13.0354 19.9149 13.3132 19.8318 13.5895 19.6946C13.7839 19.6115 14.0325 19.556 14.2533 19.5283H14.3089C15.0282 19.556 15.7211 20.1089 15.6378 21.2963V21.7106C15.7489 23.3123 14.4477 23.7543 13.5895 23.3123C13.3132 23.1738 13.0354 23.092 12.7313 23.092V23.0906ZM17.7417 16.1309C18.5443 16.656 18.8207 17.9806 17.382 18.6997C17.2431 18.7552 17.1334 18.8383 17.0223 18.8937C15.6656 19.8054 14.6699 18.8937 14.6144 17.9266C14.5588 17.2643 14.1714 16.656 13.5909 16.3803C12.5119 15.7997 12.6772 12.5422 13.2868 12.0725C14.0061 11.7691 16.9404 13.26 16.8848 14.4751V14.5583C16.8848 15.2206 17.2167 15.8011 17.743 16.1323L17.7417 16.1309ZM17.7417 26.8733C17.2153 27.2044 16.8835 27.785 16.8835 28.4473V28.5304C16.939 29.7456 14.0047 31.2364 13.2854 30.933C12.6772 30.4633 12.5105 27.2044 13.5895 26.6252C14.1714 26.3495 14.5588 25.7412 14.613 25.0789C14.6685 24.1118 15.6642 23.2015 17.0209 24.0841C17.132 24.1672 17.2417 24.2504 17.3806 24.3044C18.8193 25.0221 18.5429 26.3481 17.7403 26.8733H17.7417ZM18.1569 34.4399C17.8527 34.6339 17.6306 34.9927 17.6306 35.3793V35.4347C17.6583 36.1525 13.5062 38.4456 13.0632 38.2793C12.7036 37.9759 12.6202 33.2802 13.2576 32.9213C13.6173 32.7273 13.8395 32.3685 13.8659 31.9542C13.8936 31.2087 16.7168 29.3576 17.7403 30.0213H17.7125C17.768 30.049 17.8514 30.0767 17.8791 30.1044C18.9859 30.685 18.7929 34.0533 18.1555 34.4399H18.1569ZM17.8805 12.8997C17.8527 12.9274 17.7972 12.9551 17.7417 12.9829C16.7182 13.6452 13.895 11.7954 13.8673 11.05C13.8395 10.6357 13.6187 10.2768 13.259 10.0828C12.6508 9.75169 12.6772 5.41622 13.0382 4.78024C13.6742 4.75253 17.5778 6.87939 17.5778 7.59712L17.6333 7.45856V7.62483C17.6333 8.01141 17.8541 8.37027 18.1596 8.56425C18.7957 8.95083 18.9901 12.3206 17.8833 12.8997H17.8805ZM25.3807 12.0434C25.7126 11.8495 25.907 11.4906 25.907 11.0763V11.0486C25.907 10.3309 30.0314 8.01141 30.4744 8.204C30.8618 8.47973 30.9174 13.2032 30.28 13.562C29.9481 13.756 29.6981 14.1149 29.6981 14.5292C29.6703 15.2746 26.8472 17.098 25.7959 16.4343C25.7404 16.4066 25.7126 16.3789 25.6571 16.3789C24.5503 15.7984 24.7433 12.43 25.3807 12.0434ZM19.347 8.56425C19.6788 8.37027 19.8733 8.01141 19.8733 7.62483V7.56941C19.8733 6.85168 23.9976 4.55855 24.4406 4.72482C24.828 5.02826 24.9114 9.72398 24.2462 10.0828C23.9143 10.2768 23.6643 10.6357 23.6643 11.05C23.6366 11.7954 20.8134 13.6465 19.7622 12.9829C19.7344 12.9551 19.6789 12.9274 19.6233 12.8997C18.5443 12.3192 18.7096 8.95083 19.347 8.56425ZM23.9143 16.3803C23.3324 16.656 22.945 17.2643 22.9172 17.9266C22.8617 18.8937 21.8382 19.8041 20.5093 18.8937C20.3704 18.8383 20.2607 18.7552 20.1496 18.6997C18.6832 17.982 18.9595 16.656 19.7899 16.1309C20.2885 15.7997 20.6481 15.2192 20.6481 14.5569V14.4737C20.5926 13.2586 23.4991 11.7677 24.2184 12.0711C24.8267 12.5409 24.9933 15.7997 23.9143 16.3789V16.3803ZM24.2184 30.9344C23.4991 31.2378 20.5926 29.747 20.6481 28.5318V28.4487C20.6481 27.7864 20.2885 27.2058 19.7899 26.8747C18.9595 26.3495 18.6832 25.0249 20.1218 24.3058C20.2607 24.2504 20.3704 24.1672 20.5093 24.1118C21.866 23.2001 22.8617 24.1118 22.9172 25.0789C22.945 25.7412 23.3324 26.3495 23.9143 26.6252C24.9933 27.2058 24.828 30.4633 24.2184 30.933V30.9344ZM24.4392 38.2807C23.9962 38.447 19.8719 36.1539 19.8719 35.4361V35.3807C19.8719 34.9941 19.6775 34.6353 19.3456 34.4413C18.7096 34.0547 18.5429 30.685 19.6219 30.1058C19.6775 30.0781 19.733 30.0504 19.7608 30.0227C20.812 29.3604 23.6352 31.2101 23.6629 31.9556C23.6629 32.3699 23.9115 32.7287 24.2448 32.9227C24.9086 33.2816 24.8267 37.9759 24.4392 38.2807ZM24.7989 23.092C24.467 23.092 24.1906 23.1752 23.9407 23.3123C23.0547 23.7543 21.7813 23.3123 21.8924 21.7106V21.2963C21.8091 20.1089 22.5006 19.556 23.2213 19.5283H23.2769C23.4977 19.556 23.7199 19.6115 23.9407 19.6946C24.1893 19.8331 24.467 19.9149 24.7989 19.9149C25.1585 19.9149 25.4904 19.8041 25.7959 19.6115C26.8194 18.9769 29.5884 20.7435 29.6703 21.5166C29.587 22.2621 26.8194 24.0301 25.7959 23.3941C25.4918 23.2001 25.1599 23.0906 24.7989 23.0906V23.092ZM30.473 34.8015C30.03 34.9955 25.9056 32.6747 25.9056 31.9569V31.9292C25.9056 31.5149 25.7112 31.1561 25.3793 30.9621C24.7433 30.5755 24.5489 27.2058 25.6557 26.6266C25.7112 26.6266 25.739 26.5989 25.7946 26.5712C26.8458 25.9089 29.6689 27.7309 29.6967 28.4764C29.6967 28.8907 29.9453 29.2495 30.2786 29.4435C30.9146 29.8024 30.8604 34.5244 30.473 34.8015ZM36.1749 24.9695C36.0915 25.4392 32.0227 27.8695 31.4145 27.4829C31.2201 27.3721 31.0271 27.3167 30.8063 27.3167C30.6119 27.3167 30.4466 27.3721 30.28 27.4552C29.6162 27.8141 26.6264 26.2955 26.6541 25.0526V24.8863C26.6264 23.6712 29.6162 22.1526 30.28 22.4838C30.4466 22.5669 30.6119 22.6223 30.8063 22.6223C31.0271 22.6223 31.2215 22.5669 31.4145 22.456C32.0227 22.0695 36.0915 24.4998 36.1749 24.9695ZM31.4145 20.5509C31.2201 20.44 31.0271 20.3846 30.8063 20.3846C30.6119 20.3846 30.4466 20.44 30.28 20.5232C29.6162 20.8543 26.6264 19.3357 26.6541 18.1206V17.9543C26.6264 16.7114 29.6162 15.1929 30.28 15.5517C30.4466 15.6349 30.6119 15.6903 30.8063 15.6903C31.0271 15.6903 31.2215 15.6349 31.4145 15.524C32.0227 15.1374 36.0915 17.5677 36.1749 18.0374C36.0915 18.5072 32.0227 20.9375 31.4145 20.5509Z" fill="#0AA5EA"/>
<path d="M6.70395 16.7596C7.44445 16.7596 8.04474 15.5591 8.04474 14.0781C8.04474 12.5971 7.44445 11.3965 6.70395 11.3965C5.96345 11.3965 5.36316 12.5971 5.36316 14.0781C5.36316 15.5591 5.96345 16.7596 6.70395 16.7596Z" fill="#002995"/>
<path d="M0.663785 17.3442C0.304119 17.3442 0 17.6477 0 18.0343C0 18.3931 0.304119 18.6966 0.663785 18.6966C1.05122 18.6966 1.35534 18.3931 1.35534 18.0343C1.35534 17.6477 1.05122 17.3442 0.663785 17.3442Z" fill="#002995"/>
<path d="M0.663785 10.4126C0.304119 10.4126 0 10.716 0 11.0749C0 11.4615 0.304119 11.7649 0.663785 11.7649C1.05122 11.7649 1.35534 11.4615 1.35534 11.0749C1.35534 10.716 1.05122 10.4126 0.663785 10.4126Z" fill="#002995"/>
<path d="M6.6902 8.71478C7.07347 8.71478 7.37433 8.11308 7.37433 7.40147C7.37433 6.63491 7.07347 6.0332 6.6902 6.0332C6.33439 6.0332 6.03354 6.63491 6.03354 7.40147C6.03354 8.11308 6.33439 8.71478 6.6902 8.71478Z" fill="#002995"/>
<path d="M20.516 14.025C20.516 12.2032 19.6752 10.7276 18.6379 10.7292C17.6007 10.7309 16.7599 12.2091 16.7599 14.0309C16.7599 15.8527 17.6007 17.3283 18.6379 17.3266C19.6752 17.325 20.516 15.8468 20.516 14.025Z" fill="#002995"/>
<path d="M36.8387 17.3442C36.479 17.3442 36.1749 17.6477 36.1749 18.0343C36.1749 18.3931 36.479 18.6966 36.8387 18.6966C37.2261 18.6966 37.5302 18.3931 37.5302 18.0343C37.5302 17.6477 37.2261 17.3442 36.8387 17.3442Z" fill="#002995"/>
<path d="M12.7375 12.7372C13.4563 12.7372 14.0783 11.5443 14.0783 10.0224C14.0783 8.50049 13.4563 7.37402 12.7375 7.37402C12.0187 7.37402 11.3967 8.56694 11.3967 10.0224C11.3967 11.4778 11.9859 12.7372 12.7375 12.7372Z" fill="#002995"/>
<path d="M18.7876 10.0555C19.5154 10.0555 20.1118 8.86262 20.1118 7.40719C20.1118 5.95176 19.5154 4.69238 18.7876 4.69238C18.0599 4.69238 17.4302 5.88531 17.4302 7.40719C17.4302 8.92908 18.0267 10.0555 18.7876 10.0555Z" fill="#002995"/>
<path d="M24.8183 6.03363C25.1741 6.03363 25.475 5.43192 25.475 4.72031C25.475 3.95376 25.1741 3.35205 24.8183 3.35205C24.435 3.35205 24.1342 3.95376 24.1342 4.72031C24.1342 5.43192 24.435 6.03363 24.8183 6.03363Z" fill="#002995"/>
<path d="M24.8212 13.4076C25.5489 13.4076 26.1454 12.0655 26.1454 10.3534C26.1454 8.64129 25.5489 7.37402 24.8212 7.37402C24.0935 7.37402 23.4638 8.71606 23.4638 10.3534C23.4638 11.9908 24.0603 13.4076 24.8212 13.4076Z" fill="#002995"/>
<path d="M30.8244 9.38518C31.2077 9.38518 31.5085 8.63304 31.5085 7.74353C31.5085 6.78534 31.2077 6.0332 30.8244 6.0332C30.4686 6.0332 30.1678 6.78534 30.1678 7.74353C30.1678 8.63304 30.4686 9.38518 30.8244 9.38518Z" fill="#002995"/>
<path d="M36.8387 11.7664C37.2261 11.7664 37.5302 11.4629 37.5302 11.0764C37.5302 10.7175 37.2261 10.4141 36.8387 10.4141C36.479 10.4141 36.1749 10.7175 36.1749 11.0764C36.1749 11.4629 36.479 11.7664 36.8387 11.7664Z" fill="#002995"/>
<path d="M12.7375 6.03363C13.1008 6.03363 13.4079 5.43192 13.4079 4.72031C13.4079 3.95376 13.1008 3.35205 12.7375 3.35205C12.3462 3.35205 12.0671 3.95376 12.0671 4.72031C12.0671 5.43192 12.3462 6.03363 12.7375 6.03363Z" fill="#002995"/>
<path d="M18.7848 2.68158C19.1406 2.68158 19.4414 2.07987 19.4414 1.31331C19.4414 0.601706 19.1406 0 18.7848 0C18.4015 0 18.1006 0.601706 18.1006 1.31331C18.1006 2.07987 18.4015 2.68158 18.7848 2.68158Z" fill="#002995"/>
<path d="M30.8216 11.3965C30.0938 11.3965 29.4974 12.7959 29.4974 14.4133C29.4974 16.0306 30.0938 17.43 30.8216 17.43C31.5493 17.43 32.179 16.1044 32.179 14.4133C32.179 12.7221 31.5825 11.3965 30.8216 11.3965Z" fill="#002995"/>
<path d="M30.8216 25.4751C30.0938 25.4751 29.4974 26.8007 29.4974 28.4919C29.4974 30.183 30.0938 31.5086 30.8216 31.5086C31.5493 31.5086 32.179 30.1092 32.179 28.4919C32.179 26.8746 31.5825 25.4751 30.8216 25.4751Z" fill="#002995"/>
<path d="M36.8387 31.2349C36.479 31.2349 36.1749 31.5383 36.1749 31.9249C36.1749 32.2837 36.479 32.5872 36.8387 32.5872C37.2261 32.5872 37.5302 32.2837 37.5302 31.9249C37.5302 31.5383 37.2261 31.2349 36.8387 31.2349Z" fill="#002995"/>
<path d="M24.8195 14.7485C23.6876 14.7485 22.7934 16.3758 22.7934 18.4357C22.7934 20.4956 23.6876 22.1229 24.8195 22.1229C25.9515 22.1229 26.8158 20.4412 26.8158 18.4357C26.8158 16.4302 25.9216 14.7485 24.8195 14.7485Z" fill="#002995"/>
<path d="M30.8216 18.771C30.0938 18.771 29.4974 20.113 29.4974 21.8252C29.4974 23.5373 30.0938 24.8045 30.8216 24.8045C31.5493 24.8045 32.179 23.4625 32.179 21.8252C32.179 20.1878 31.5825 18.771 30.8216 18.771Z" fill="#002995"/>
<path d="M36.8387 24.3027C36.479 24.3027 36.1749 24.6062 36.1749 24.965C36.1749 25.3516 36.479 25.6551 36.8387 25.6551C37.2261 25.6551 37.5302 25.3516 37.5302 24.965C37.5302 24.6062 37.2261 24.3027 36.8387 24.3027Z" fill="#002995"/>
<path d="M30.8244 32.8491C30.4686 32.8491 30.1678 33.6013 30.1678 34.4908C30.1678 35.449 30.4686 36.2011 30.8244 36.2011C31.2077 36.2011 31.5085 35.449 31.5085 34.4908C31.5085 33.6013 31.2077 32.8491 30.8244 32.8491Z" fill="#002995"/>
<path d="M6.6902 32.8491C6.33439 32.8491 6.03354 33.6013 6.03354 34.4908C6.03354 35.449 6.33439 36.2011 6.6902 36.2011C7.07347 36.2011 7.37433 35.449 7.37433 34.4908C7.37433 33.6013 7.07347 32.8491 6.6902 32.8491Z" fill="#002995"/>
<path d="M24.8183 36.8716C24.435 36.8716 24.1342 37.4733 24.1342 38.1849C24.1342 38.9515 24.435 39.5532 24.8183 39.5532C25.1741 39.5532 25.475 38.9515 25.475 38.1849C25.475 37.4733 25.1741 36.8716 24.8183 36.8716Z" fill="#002995"/>
<path d="M0.663785 31.2349C0.304119 31.2349 0 31.5383 0 31.9249C0 32.2837 0.304119 32.5872 0.663785 32.5872C1.05122 32.5872 1.35534 32.2837 1.35534 31.9249C1.35534 31.5383 1.05122 31.2349 0.663785 31.2349Z" fill="#002995"/>
<path d="M6.70395 31.5086C7.44445 31.5086 8.04474 30.158 8.04474 28.4919C8.04474 26.8258 7.44445 25.4751 6.70395 25.4751C5.96345 25.4751 5.36316 26.8258 5.36316 28.4919C5.36316 30.158 5.96345 31.5086 6.70395 31.5086Z" fill="#002995"/>
<path d="M12.7737 28.827C13.8125 28.827 14.652 27.1198 14.6487 25.0138C14.6454 22.9079 13.8005 21.2007 12.7617 21.2007C11.7228 21.2007 10.8833 22.9079 10.8866 25.0138C10.8899 27.1198 11.7348 28.827 12.7737 28.827Z" fill="#002995"/>
<path d="M12.7375 30.1675C11.9859 30.1675 11.3967 31.2113 11.3967 32.5429C11.3967 33.8746 11.9859 34.8602 12.7375 34.8602C13.4891 34.8602 14.0783 33.8164 14.0783 32.5429C14.0783 31.2694 13.4563 30.1675 12.7375 30.1675Z" fill="#002995"/>
<path d="M18.8871 33.0557C19.9253 33.0198 20.7116 31.4584 20.6433 29.5681C20.575 27.6779 19.678 26.1746 18.6398 26.2104C17.6015 26.2463 16.8152 27.8077 16.8835 29.698C16.9518 31.5883 17.8488 33.0916 18.8871 33.0557Z" fill="#002995"/>
<path d="M12.7375 36.2017C12.3462 36.2017 12.0671 36.9538 12.0671 37.8433C12.0671 38.8015 12.3462 39.5536 12.7375 39.5536C13.1008 39.5536 13.4079 38.8015 13.4079 37.8433C13.4079 36.9538 13.1008 36.2017 12.7375 36.2017Z" fill="#002995"/>
<path d="M24.8212 30.8384C24.0603 30.8384 23.4638 31.8822 23.4638 33.2138C23.4638 34.5455 24.0603 35.5311 24.8212 35.5311C25.5822 35.5311 26.1454 34.4873 26.1454 33.2138C26.1454 31.9403 25.5489 30.8384 24.8212 30.8384Z" fill="#002995"/>
<path d="M0.663785 24.3027C0.304119 24.3027 0 24.6062 0 24.965C0 25.3516 0.304119 25.6551 0.663785 25.6551C1.05122 25.6551 1.35534 25.3516 1.35534 24.965C1.35534 24.6062 1.05122 24.3027 0.663785 24.3027Z" fill="#002995"/>
<path d="M6.70395 18.1006C5.98514 18.1006 5.36316 19.4426 5.36316 21.1547C5.36316 22.8669 5.98514 24.1341 6.70395 24.1341C7.42276 24.1341 8.04474 22.7921 8.04474 21.1547C8.04474 19.5174 7.45558 18.1006 6.70395 18.1006Z" fill="#002995"/>
<path d="M12.8045 20.6273C13.8433 20.6168 14.6673 19.0644 14.645 17.16C14.6226 15.2556 13.7624 13.7203 12.7236 13.7309C11.6848 13.7414 10.8608 15.2938 10.8831 17.1982C10.9055 19.1026 11.7657 20.6379 12.8045 20.6273Z" fill="#002995"/>
<path d="M18.8381 17.7656C17.5294 17.7656 16.4917 19.5723 16.4917 21.7702C16.4917 23.9681 17.5305 25.8104 18.8381 25.8104C20.1457 25.8104 21.1845 24.0037 21.1845 21.7702C21.1845 19.5367 20.1248 17.7656 18.8381 17.7656Z" fill="#002995"/>
<path d="M24.8195 22.7935C23.6876 22.7935 22.7934 24.3223 22.7934 26.1454C22.7934 27.9686 23.6876 29.4974 24.8195 29.4974C25.9515 29.4974 26.8158 28.0181 26.8158 26.1454C26.8158 24.2728 25.9216 22.7935 24.8195 22.7935Z" fill="#002995"/>
<path d="M18.7876 34.1899C18.0267 34.1899 17.4302 35.0846 17.4302 36.1762C17.4302 37.2678 18.0267 38.2123 18.7876 38.2123C19.5486 38.2123 20.1118 37.3176 20.1118 36.1762C20.1118 35.0348 19.5154 34.1899 18.7876 34.1899Z" fill="#002995"/>
<path d="M18.7848 39.5532C18.4015 39.5532 18.1006 40.3054 18.1006 41.2636C18.1006 42.1531 18.4015 42.9052 18.7848 42.9052C19.1406 42.9052 19.4414 42.1531 19.4414 41.2636C19.4414 40.3054 19.1406 39.5532 18.7848 39.5532Z" fill="#002995"/>
<path d="M78.4934 24.6826C78.3441 24.3434 78.1813 23.9636 78.005 23.543C77.8422 23.1225 77.6658 22.6409 77.4759 22.0983C77.2996 21.5556 77.1096 20.9384 76.9062 20.2465C76.7162 19.5411 76.5127 18.7339 76.2957 17.825C76.4856 17.6351 76.7366 17.4723 77.0486 17.3366C77.3742 17.1874 77.7269 17.1128 78.1067 17.1128C78.5815 17.1128 78.975 17.2145 79.287 17.418C79.599 17.6079 79.8296 17.9742 79.9788 18.5169L81.5864 24.1128H81.6678C81.8306 23.6516 81.9866 23.1496 82.1358 22.607C82.2986 22.0644 82.4546 21.5082 82.6038 20.9384C82.7531 20.355 82.8887 19.7785 83.0108 19.2087C83.1465 18.6254 83.2618 18.0556 83.3567 17.4994C83.8451 17.2417 84.381 17.1128 84.9643 17.1128C85.4391 17.1128 85.8325 17.2145 86.1445 17.418C86.4566 17.6215 86.6126 17.9742 86.6126 18.4762C86.6126 18.8424 86.5651 19.2698 86.4701 19.7581C86.3752 20.233 86.2463 20.7417 86.0835 21.2843C85.9343 21.827 85.7511 22.3899 85.5341 22.9733C85.3306 23.543 85.1135 24.106 84.8829 24.6622C84.6523 25.2184 84.4149 25.7475 84.1707 26.2494C83.9265 26.7378 83.6891 27.1787 83.4585 27.5721C83.0786 28.2368 82.7259 28.7795 82.4004 29.2C82.0748 29.6206 81.7628 29.9462 81.4643 30.1768C81.1659 30.421 80.8674 30.5838 80.5689 30.6651C80.2705 30.7601 79.9585 30.8076 79.6329 30.8076C79.0631 30.8076 78.6019 30.638 78.2492 30.2989C77.8965 29.9597 77.6862 29.5188 77.6184 28.9762C78.0525 28.637 78.4866 28.2572 78.9207 27.8367C79.3548 27.4297 79.7482 27.0091 80.1009 26.575C79.8703 26.5072 79.6193 26.3512 79.348 26.107C79.0903 25.8492 78.8054 25.3744 78.4934 24.6826Z" fill="#002995"/>
<path d="M64.7999 22.2607C64.7999 21.3654 64.9356 20.5921 65.2069 19.9409C65.4782 19.2762 65.8513 18.7268 66.3261 18.2927C66.8145 17.8586 67.3775 17.5398 68.015 17.3363C68.6662 17.1192 69.3649 17.0107 70.111 17.0107C70.3823 17.0107 70.6468 17.0378 70.9046 17.0921C71.1623 17.1328 71.3726 17.1871 71.5354 17.2549V13.9584C71.6711 13.9177 71.8881 13.877 72.1866 13.8363C72.485 13.782 72.7903 13.7549 73.1023 13.7549C73.4007 13.7549 73.6653 13.7752 73.8959 13.8159C74.1401 13.8566 74.3436 13.938 74.5063 14.0601C74.6691 14.1822 74.7912 14.3518 74.8726 14.5688C74.954 14.7723 74.9947 15.0436 74.9947 15.3828V25.0282C74.9947 25.6658 74.6963 26.1745 74.0994 26.5543C73.706 26.8121 73.1972 27.0359 72.5732 27.2258C71.9492 27.4293 71.2302 27.5311 70.4162 27.5311C69.5344 27.5311 68.7408 27.409 68.0354 27.1648C67.3435 26.9206 66.7534 26.5679 66.265 26.1067C65.7902 25.6454 65.424 25.096 65.1662 24.4584C64.922 23.8072 64.7999 23.0747 64.7999 22.2607ZM70.579 19.7171C69.8464 19.7171 69.2835 19.9274 68.8901 20.3479C68.4966 20.7685 68.2999 21.4061 68.2999 22.2607C68.2999 23.1018 68.4831 23.7394 68.8494 24.1735C69.2156 24.5941 69.7447 24.8043 70.4366 24.8043C70.6808 24.8043 70.8978 24.7704 71.0877 24.7026C71.2912 24.6212 71.4472 24.533 71.5558 24.438V19.9613C71.2844 19.7985 70.9589 19.7171 70.579 19.7171Z" fill="#002995"/>
<path d="M59.8346 20.9381C59.8346 20.5175 59.7125 20.2123 59.4683 20.0224C59.2377 19.8189 58.9189 19.7171 58.5119 19.7171C58.2406 19.7171 57.9693 19.7511 57.698 19.8189C57.4402 19.8867 57.2164 19.9885 57.0264 20.1241V27.1852C56.8908 27.2259 56.6737 27.2666 56.3753 27.3073C56.0904 27.348 55.792 27.3683 55.4799 27.3683C55.1815 27.3683 54.9102 27.348 54.666 27.3073C54.4354 27.2666 54.2387 27.1852 54.0759 27.0631C53.9131 26.941 53.7842 26.7782 53.6892 26.5747C53.6078 26.3577 53.5671 26.0796 53.5671 25.7404V19.6357C53.5671 19.2695 53.6418 18.971 53.791 18.7404C53.9538 18.5098 54.1708 18.2995 54.4421 18.1096C54.9034 17.784 55.4799 17.5195 56.1718 17.316C56.8772 17.1125 57.6573 17.0107 58.5119 17.0107C60.0449 17.0107 61.2251 17.3499 62.0526 18.0282C62.8801 18.6929 63.2939 19.6222 63.2939 20.816V27.1852C63.1582 27.2259 62.9412 27.2666 62.6427 27.3073C62.3579 27.348 62.0594 27.3683 61.7474 27.3683C61.4489 27.3683 61.1776 27.348 60.9334 27.3073C60.7028 27.2666 60.5061 27.1852 60.3433 27.0631C60.1805 26.941 60.0516 26.7782 59.9567 26.5747C59.8753 26.3577 59.8346 26.0796 59.8346 25.7404V20.9381Z" fill="#002995"/>
<path d="M47.9462 14.5687C47.9462 14.0532 48.1158 12.2783 48.4549 11.9256C48.8076 11.5728 49.2689 11.3965 49.8386 11.3965C50.4084 11.3965 50.8629 11.5728 51.202 11.9256C51.5547 12.2783 51.7311 14.0532 51.7311 14.5687C51.7311 15.0842 51.5547 15.5183 51.202 15.871C50.8629 16.2237 50.4084 16.4001 49.8386 16.4001C49.2689 16.4001 48.8076 16.2237 48.4549 15.871C48.1158 15.5183 47.9462 15.0842 47.9462 14.5687ZM51.5683 27.185C51.4191 27.2121 51.1952 27.246 50.8968 27.2867C50.6119 27.341 50.3202 27.3681 50.0218 27.3681C49.7233 27.3681 49.452 27.3478 49.2078 27.3071C48.9772 27.2664 48.7805 27.185 48.6177 27.0629C48.4549 26.9408 48.326 26.778 48.2311 26.5745C48.1497 26.3575 48.109 26.0794 48.109 25.7402V17.4582C48.2582 17.4311 48.4753 17.3972 48.7602 17.3565C49.0586 17.3022 49.3571 17.2751 49.6555 17.2751C49.954 17.2751 50.2185 17.2954 50.4491 17.3361C50.6933 17.3768 50.8968 17.4582 51.0596 17.5803C51.2224 17.7024 51.3445 17.872 51.4259 18.089C51.5208 18.2925 51.5683 18.5638 51.5683 18.903V27.185Z" fill="#002995"/>
<path d="M43.2239 26.7985C43.034 26.9613 42.7356 27.1037 42.3286 27.2258C41.9352 27.3479 41.5011 27.4089 41.0262 27.4089C40.4565 27.4089 39.9681 27.3276 39.5611 27.1648C39.1541 26.9884 38.876 26.751 38.7268 26.4526C38.5776 26.1405 38.3945 25.7403 38.1774 25.252C37.9603 24.75 37.7297 24.1938 37.4855 23.5834C37.2549 22.9729 37.0107 22.3285 36.753 21.6502C36.5088 20.9584 36.2714 20.2597 36.0408 19.5543C35.8101 18.8489 35.5931 18.157 35.3896 17.4787C35.1861 16.8004 35.0098 16.1628 34.8605 15.5659C35.0505 15.376 35.3218 15.2064 35.6745 15.0572C36.0408 14.8944 36.4274 14.813 36.8344 14.813C37.3363 14.813 37.7433 14.9215 38.0553 15.1386C38.3809 15.3421 38.6183 15.7287 38.7675 16.2985C39.1338 17.6279 39.5001 18.9031 39.8664 20.124C40.2462 21.3314 40.6396 22.593 41.0466 23.9089H41.1687C41.535 22.6337 41.908 21.2432 42.2879 19.7374C42.6813 18.2316 43.0544 16.7326 43.4071 15.2403C43.6513 15.1182 43.909 15.0165 44.1803 14.9351C44.4652 14.8537 44.784 14.813 45.1367 14.813C45.6387 14.813 46.066 14.9283 46.4187 15.1589C46.7714 15.376 46.9478 15.7423 46.9478 16.2578C46.9478 16.5562 46.8732 16.9903 46.7239 17.5601C46.5883 18.1299 46.4051 18.7742 46.1745 19.4932C45.9575 20.1987 45.7065 20.938 45.4216 21.7113C45.1503 22.4845 44.8722 23.2171 44.5873 23.9089C44.316 24.5872 44.0582 25.1909 43.814 25.72C43.5699 26.2355 43.3732 26.595 43.2239 26.7985Z" fill="#002995"/>
</svg>
